{
    "asset" : {
        "generator" : "Khronos glTF Blender I/O v1.6.16",
        "version" : "2.0"
    },
    "scene" : 0,
    "scenes" : [
        {
            "name" : "Scene",
            "nodes" : [
                0
            ]
        }
    ],
    "nodes" : [
        {
            "mesh" : 0,
            "name" : "Armchair_01_Table",
            "scale" : [
                0.009999999776482582,
                0.009999999776482582,
                0.009999999776482582
            ]
        }
    ],
    "materials" : [
        {
            "doubleSided" : true,
            "name" : "Armchair_01.001",
            "pbrMetallicRoughness" : {
                "baseColorFactor" : [
                    0.5879999995231628,
                    0.5879999995231628,
                    0.5879999995231628,
                    1
                ],
                "roughnessFactor" : 0.858578622341156
            }
        }
    ],
    "meshes" : [
        {
            "name" : "Mesh.008",
            "primitives" : [
                {
                    "attributes" : {
                        "POSITION" : 0,
                        "NORMAL" : 1,
                        "TEXCOORD_0" : 2,
                        "TEXCOORD_1" : 3
                    },
                    "indices" : 4,
                    "material" : 0
                }
            ]
        }
    ],
    "accessors" : [
        {
            "bufferView" : 0,
            "componentType" : 5126,
            "count" : 3875,
            "max" : [
                32.03651428222656,
                42.572513580322266,
                24.880413055419922
            ],
            "min" : [
                -32.036495208740234,
                0.15539655089378357,
                -36.07942581176758
            ],
            "type" : "VEC3"
        },
        {
            "bufferView" : 1,
            "componentType" : 5126,
            "count" : 3875,
            "type" : "VEC3"
        },
        {
            "bufferView" : 2,
            "componentType" : 5126,
            "count" : 3875,
            "type" : "VEC2"
        },
        {
            "bufferView" : 3,
            "componentType" : 5126,
            "count" : 3875,
            "type" : "VEC2"
        },
        {
            "bufferView" : 4,
            "componentType" : 5123,
            "count" : 11232,
            "type" : "SCALAR"
        }
    ],
    "bufferViews" : [
        {
            "buffer" : 0,
            "byteLength" : 46500,
            "byteOffset" : 0
        },
        {
            "buffer" : 0,
            "byteLength" : 46500,
            "byteOffset" : 46500
        },
        {
            "buffer" : 0,
            "byteLength" : 31000,
            "byteOffset" : 93000
        },
        {
            "buffer" : 0,
            "byteLength" : 31000,
            "byteOffset" : 124000
        },
        {
            "buffer" : 0,
            "byteLength" : 22464,
            "byteOffset" : 155000
        }
    ],
    "buffers" : [
        {
            "byteLength" : 177464,
            "uri" : "data:application/octet-stream;base64,"
        }
    ]
}
