{
  "accessors": [
    {
      "bufferView": 2,
      "componentType": 5126,
      "count": 475,
      "max": [
        59.69318771362305,
        45.69183349609375,
        188.90176391601563
      ],
      "min": [
        -59.13108825683594,
        -44.704803466796875,
        -0.322584867477417
      ],
      "type": "VEC3"
    },
    {
      "bufferView": 2,
      "byteOffset": 5700,
      "componentType": 5126,
      "count": 475,
      "max": [
        0.9962297677993774,
        0.999527096748352,
        0.9997231960296631
      ],
      "min": [
        -0.9978200793266296,
        -0.998927891254425,
        -0.9995156526565552
      ],
      "type": "VEC3"
    },
    {
      "bufferView": 3,
      "componentType": 5126,
      "count": 475,
      "max": [
        0.999936580657959,
        0.9997393488883972,
        0.6969728469848633,
        1.0
      ],
      "min": [
        -0.9999712705612183,
        -0.9999875426292419,
        -0.7029686570167542,
        1.0
      ],
      "type": "VEC4"
    },
    {
      "bufferView": 1,
      "componentType": 5126,
      "count": 475,
      "max": [
        0.9809142351150513,
        0.5935032367706299
      ],
      "min": [
        0.012891378253698349,
        0.010809089988470078
      ],
      "type": "VEC2"
    },
    {
      "bufferView": 0,
      "componentType": 5125,
      "count": 2343,
      "type": "SCALAR"
    },
    {
      "bufferView": 2,
      "byteOffset": 11400,
      "componentType": 5126,
      "count": 186,
      "max": [
        111.80148315429688,
        112.02247619628906,
        17.756059646606445
      ],
      "min": [
        -111.80146789550781,
        -112.02247619628906,
        9.5367431640625e-07
      ],
      "type": "VEC3"
    },
    {
      "bufferView": 2,
      "byteOffset": 13632,
      "componentType": 5126,
      "count": 186,
      "max": [
        0.9795962572097778,
        0.9776645302772522,
        1.0
      ],
      "min": [
        -0.9718729853630066,
        -0.9776643514633179,
        -1.0
      ],
      "type": "VEC3"
    },
    {
      "bufferView": 3,
      "byteOffset": 7600,
      "componentType": 5126,
      "count": 186,
      "max": [
        0.5123762488365173,
        0.9999987483024597,
        0.9795933961868286,
        1.0
      ],
      "min": [
        -0.19909662008285522,
        -0.8805460929870605,
        -0.4189438223838806,
        1.0
      ],
      "type": "VEC4"
    },
    {
      "bufferView": 1,
      "byteOffset": 3800,
      "componentType": 5126,
      "count": 186,
      "max": [
        0.9879432916641235,
        0.9913929104804993
      ],
      "min": [
        0.021941889077425003,
        0.5020498037338257
      ],
      "type": "VEC2"
    },
    {
      "bufferView": 0,
      "byteOffset": 9372,
      "componentType": 5125,
      "count": 756,
      "type": "SCALAR"
    },
    {
      "bufferView": 2,
      "byteOffset": 15864,
      "componentType": 5126,
      "count": 456,
      "max": [
        52.077972412109375,
        52.077964782714844,
        155.70654296875
      ],
      "min": [
        -52.07795715332031,
        -52.077964782714844,
        -3.814697265625e-06
      ],
      "type": "VEC3"
    },
    {
      "bufferView": 2,
      "byteOffset": 21336,
      "componentType": 5126,
      "count": 456,
      "max": [
        0.9983913898468018,
        0.9983914494514465,
        1.0
      ],
      "min": [
        -0.9983913898468018,
        -0.9983914494514465,
        -1.0
      ],
      "type": "VEC3"
    },
    {
      "bufferView": 3,
      "byteOffset": 10576,
      "componentType": 5126,
      "count": 456,
      "max": [
        0.9988409280776978,
        1.0,
        0.8264707922935486,
        1.0
      ],
      "min": [
        -0.9989979863166809,
        -1.0,
        -0.8311842679977417,
        1.0
      ],
      "type": "VEC4"
    },
    {
      "bufferView": 1,
      "byteOffset": 5288,
      "componentType": 5126,
      "count": 456,
      "max": [
        0.9744687080383301,
        0.9899999499320984
      ],
      "min": [
        0.009999999776482582,
        0.019425250589847565
      ],
      "type": "VEC2"
    },
    {
      "bufferView": 0,
      "byteOffset": 12396,
      "componentType": 5125,
      "count": 1920,
      "type": "SCALAR"
    },
    {
      "bufferView": 2,
      "byteOffset": 26808,
      "componentType": 5126,
      "count": 697,
      "max": [
        35.0,
        35.0,
        283.9999694824219
      ],
      "min": [
        -35.0,
        -35.0,
        -8.344650268554688e-07
      ],
      "type": "VEC3"
    },
    {
      "bufferView": 2,
      "byteOffset": 35172,
      "componentType": 5126,
      "count": 697,
      "max": [
        0.9921973943710327,
        0.9921973347663879,
        1.0
      ],
      "min": [
        -0.9921973347663879,
        -0.9921973943710327,
        -1.0
      ],
      "type": "VEC3"
    },
    {
      "bufferView": 3,
      "byteOffset": 17872,
      "componentType": 5126,
      "count": 697,
      "max": [
        0.9999998211860657,
        0.9999998211860657,
        0.9911360144615173,
        1.0
      ],
      "min": [
        -1.0,
        -0.9999998211860657,
        -0.9899516701698303,
        1.0
      ],
      "type": "VEC4"
    },
    {
      "bufferView": 1,
      "byteOffset": 8936,
      "componentType": 5126,
      "count": 697,
      "max": [
        0.9799657464027405,
        0.89351487159729
      ],
      "min": [
        0.009999999776482582,
        0.009999999776482582
      ],
      "type": "VEC2"
    },
    {
      "bufferView": 0,
      "byteOffset": 20076,
      "componentType": 5125,
      "count": 2700,
      "type": "SCALAR"
    }
  ],
  "asset": {
    "extras": {
      "author": "Yury Misiyuk (https://sketchfab.com/Tim0)",
      "license": "CC-BY-4.0 (http://creativecommons.org/licenses/by/4.0/)",
      "source": "https://sketchfab.com/3d-models/kitchen-set-03-d008ddb342914eddb760712cec0c7194",
      "title": "Kitchen set_03"
    },
    "generator": "Sketchfab-13.37.1",
    "version": "2.0"
  },
  "bufferViews": [
    {
      "buffer": 0,
      "byteLength": 30876,
      "name": "floatBufferViews",
      "target": 34963
    },
    {
      "buffer": 0,
      "byteLength": 14512,
      "byteOffset": 30876,
      "byteStride": 8,
      "name": "floatBufferViews",
      "target": 34962
    },
    {
      "buffer": 0,
      "byteLength": 43536,
      "byteOffset": 45388,
      "byteStride": 12,
      "name": "floatBufferViews",
      "target": 34962
    },
    {
      "buffer": 0,
      "byteLength": 29024,
      "byteOffset": 88924,
      "byteStride": 16,
      "name": "floatBufferViews",
      "target": 34962
    }
  ],
  "buffers": [
    {
      "byteLength": 117948,
      "uri": "scene.bin"
    }
  ],
  "images": [
    {
      "uri": "textures/Material_01_baseColor.png"
    },
    {
      "uri": "textures/Material_01_metallicRoughness.png"
    },
    {
      "uri": "textures/Material_01_normal.png"
    },
    {
      "uri": "textures/Material_02_baseColor.png"
    },
    {
      "uri": "textures/Material_02_metallicRoughness.png"
    },
    {
      "uri": "textures/Material_02_normal.png"
    }
  ],
  "materials": [
    {
      "doubleSided": true,
      "name": "Material_01",
      "normalTexture": {
        "index": 2
      },
      "occlusionTexture": {
        "index": 1
      },
      "pbrMetallicRoughness": {
        "baseColorTexture": {
          "index": 0
        },
        "metallicRoughnessTexture": {
          "index": 1
        }
      }
    },
    {
      "alphaMode": "BLEND",
      "doubleSided": true,
      "name": "Material_02",
      "normalTexture": {
        "index": 5
      },
      "occlusionTexture": {
        "index": 4
      },
      "pbrMetallicRoughness": {
        "baseColorTexture": {
          "index": 3
        },
        "metallicRoughnessTexture": {
          "index": 4
        }
      }
    }
  ],
  "meshes": [
    {
      "name": "pouch_Material_01_0",
      "primitives": [
        {
          "attributes": {
            "NORMAL": 1,
            "POSITION": 0,
            "TANGENT": 2,
            "TEXCOORD_0": 3
          },
          "indices": 4,
          "material": 0,
          "mode": 4
        }
      ]
    },
    {
      "name": "plate_Material_01_0",
      "primitives": [
        {
          "attributes": {
            "NORMAL": 6,
            "POSITION": 5,
            "TANGENT": 7,
            "TEXCOORD_0": 8
          },
          "indices": 9,
          "material": 0,
          "mode": 4
        }
      ]
    },
    {
      "name": "glass_Material_02_0",
      "primitives": [
        {
          "attributes": {
            "NORMAL": 11,
            "POSITION": 10,
            "TANGENT": 12,
            "TEXCOORD_0": 13
          },
          "indices": 14,
          "material": 1,
          "mode": 4
        }
      ]
    },
    {
      "name": "bottle_Material_02_0",
      "primitives": [
        {
          "attributes": {
            "NORMAL": 16,
            "POSITION": 15,
            "TANGENT": 17,
            "TEXCOORD_0": 18
          },
          "indices": 19,
          "material": 1,
          "mode": 4
        }
      ]
    }
  ],
  "nodes": [
    {
      "children": [
        1
      ],
      "matrix": [
        1.0,
        0.0,
        0.0,
        0.0,
        0.0,
        2.220446049250313e-16,
        -1.0,
        0.0,
        0.0,
        1.0,
        2.220446049250313e-16,
        0.0,
        0.0,
        0.0,
        0.0,
        1.0
      ],
      "name": "Sketchfab_model"
    },
    {
      "children": [
        2
      ],
      "matrix": [
        1.0,
        0.0,
        0.0,
        0.0,
        0.0,
        0.0,
        1.0,
        0.0,
        0.0,
        -1.0,
        0.0,
        0.0,
        0.0,
        0.0,
        0.0,
        1.0
      ],
      "name": "514a426c09ff4143ab529193a1250908.fbx"
    },
    {
      "children": [
        3,
        5,
        7,
        9
      ],
      "name": "RootNode"
    },
    {
      "children": [
        4
      ],
      "matrix": [
        1.0,
        0.0,
        0.0,
        0.0,
        0.0,
        2.220446049250313e-16,
        -1.0,
        0.0,
        0.0,
        1.0,
        2.220446049250313e-16,
        0.0,
        -211.70599365234375,
        0.0,
        0.0,
        1.0
      ],
      "name": "pouch"
    },
    {
      "mesh": 0,
      "name": "pouch_Material_01_0"
    },
    {
      "children": [
        6
      ],
      "matrix": [
        1.0,
        0.0,
        0.0,
        0.0,
        0.0,
        2.220446049250313e-16,
        -1.0,
        0.0,
        0.0,
        1.0,
        2.220446049250313e-16,
        0.0,
        0.0,
        0.0,
        -3.814697265625e-06,
        1.0
      ],
      "name": "plate"
    },
    {
      "mesh": 1,
      "name": "plate_Material_01_0"
    },
    {
      "children": [
        8
      ],
      "matrix": [
        1.0,
        0.0,
        0.0,
        0.0,
        0.0,
        2.220446049250313e-16,
        -1.0,
        0.0,
        0.0,
        1.0,
        2.220446049250313e-16,
        0.0,
        181.92941284179688,
        1.52587890625e-05,
        3.814697265625e-06,
        1.0
      ],
      "name": "glass"
    },
    {
      "mesh": 2,
      "name": "glass_Material_02_0"
    },
    {
      "children": [
        10
      ],
      "matrix": [
        1.0,
        0.0,
        0.0,
        0.0,
        0.0,
        2.220446049250313e-16,
        -1.0,
        0.0,
        0.0,
        1.0,
        2.220446049250313e-16,
        0.0,
        318.30181884765625,
        0.0,
        0.0,
        1.0
      ],
      "name": "bottle"
    },
    {
      "mesh": 3,
      "name": "bottle_Material_02_0"
    }
  ],
  "samplers": [
    {
      "magFilter": 9729,
      "minFilter": 9987,
      "wrapS": 10497,
      "wrapT": 10497
    }
  ],
  "scene": 0,
  "scenes": [
    {
      "name": "Sketchfab_Scene",
      "nodes": [
        0
      ]
    }
  ],
  "textures": [
    {
      "sampler": 0,
      "source": 0
    },
    {
      "sampler": 0,
      "source": 1
    },
    {
      "sampler": 0,
      "source": 2
    },
    {
      "sampler": 0,
      "source": 3
    },
    {
      "sampler": 0,
      "source": 4
    },
    {
      "sampler": 0,
      "source": 5
    }
  ]
}
