{
  "accessors": [
    {
      "bufferView": 2,
      "componentType": 5126,
      "count": 1527,
      "max": [
        0.7255580425262451,
        0.17296645045280457,
        1.5337728261947632
      ],
      "min": [
        -0.7255558967590332,
        -0.38214826583862305,
        0.0011293594725430012
      ],
      "type": "VEC3"
    },
    {
      "bufferView": 2,
      "byteOffset": 18324,
      "componentType": 5126,
      "count": 1527,
      "max": [
        0.9988017082214355,
        0.9943142533302307,
        0.9999887347221375
      ],
      "min": [
        -0.9987999200820923,
        -0.9999887347221375,
        -1.0000038146972656
      ],
      "type": "VEC3"
    },
    {
      "bufferView": 1,
      "componentType": 5126,
      "count": 1527,
      "max": [
        0.9901999831199646,
        0.9876300096511841
      ],
      "min": [
        0.009329999797046185,
        0.0018100000452250242
      ],
      "type": "VEC2"
    },
    {
      "bufferView": 0,
      "componentType": 5125,
      "count": 2892,
      "type": "SCALAR"
    },
    {
      "bufferView": 3,
      "componentType": 5126,
      "count": 1,
      "max": [
        1.0,
        0.0,
        0.0,
        0.0,
        0.0,
        1.0,
        0.0,
        0.0,
        0.0,
        0.0,
        1.0,
        0.0,
        0.0,
        0.0,
        0.0,
        1.0
      ],
      "min": [
        1.0,
        0.0,
        0.0,
        0.0,
        0.0,
        1.0,
        0.0,
        0.0,
        0.0,
        0.0,
        1.0,
        0.0,
        0.0,
        0.0,
        0.0,
        1.0
      ],
      "type": "MAT4"
    }
  ],
  "asset": {
    "extras": {
      "author": "Inuciian (https://sketchfab.com/Inuciian)",
      "license": "CC-BY-4.0 (http://creativecommons.org/licenses/by/4.0/)",
      "source": "https://sketchfab.com/3d-models/monk-character-8cacbd85a5b84f59a8c9000d7a6dcca2",
      "title": "Monk Character"
    },
    "generator": "Sketchfab-12.66.0",
    "version": "2.0"
  },
  "bufferViews": [
    {
      "buffer": 0,
      "byteLength": 11568,
      "name": "floatBufferViews",
      "target": 34963
    },
    {
      "buffer": 0,
      "byteLength": 12216,
      "byteOffset": 11568,
      "byteStride": 8,
      "name": "floatBufferViews",
      "target": 34962
    },
    {
      "buffer": 0,
      "byteLength": 36648,
      "byteOffset": 23784,
      "byteStride": 12,
      "name": "floatBufferViews",
      "target": 34962
    },
    {
      "buffer": 0,
      "byteLength": 64,
      "byteOffset": 60432,
      "name": "floatBufferViews"
    }
  ],
  "buffers": [
    {
      "byteLength": 60496,
      "uri": "scene.bin"
    }
  ],
  "images": [
    {
      "uri": "textures/monk_material_baseColor.png"
    }
  ],
  "materials": [
    {
      "doubleSided": true,
      "name": "monk_material",
      "pbrMetallicRoughness": {
        "baseColorTexture": {
          "index": 0
        },
        "metallicFactor": 0.0
      }
    }
  ],
  "meshes": [
    {
      "name": "monk_0",
      "primitives": [
        {
          "attributes": {
            "NORMAL": 1,
            "POSITION": 0,
            "TEXCOORD_0": 2
          },
          "indices": 3,
          "material": 0,
          "mode": 4
        }
      ]
    }
  ],
  "nodes": [
    {
      "children": [
        1
      ],
      "matrix": [
        1.0,
        0.0,
        0.0,
        0.0,
        0.0,
        2.220446049250313e-16,
        -1.0,
        0.0,
        0.0,
        1.0,
        2.220446049250313e-16,
        0.0,
        0.0,
        0.0,
        0.0,
        1.0
      ],
      "name": "Sketchfab_model"
    },
    {
      "children": [
        2
      ],
      "name": "Root"
    },
    {
      "children": [
        3,
        4
      ],
      "matrix": [
        1.0,
        0.0,
        0.0,
        0.0,
        0.0,
        1.0,
        0.0,
        0.0,
        0.0,
        0.0,
        1.0,
        0.0,
        0.0,
        0.06009000000000001,
        0.7217800000000001,
        1.0
      ],
      "name": "Armature_Monk"
    },
    {
      "name": "Armature_Monk_rootJoint"
    },
    {
      "children": [
        5
      ],
      "matrix": [
        -1.0,
        -0.0,
        0.0,
        0.0,
        0.0,
        -1.0,
        0.0,
        0.0,
        0.0,
        0.0,
        1.0,
        0.0,
        0.0,
        -0.12086000000000001,
        -0.7217800000000001,
        1.0
      ],
      "name": "monk"
    },
    {
      "mesh": 0,
      "name": "monk_0"
    }
  ],
  "samplers": [
    {
      "magFilter": 9729,
      "minFilter": 9987,
      "wrapS": 10497,
      "wrapT": 10497
    }
  ],
  "scene": 0,
  "scenes": [
    {
      "name": "Sketchfab_Scene",
      "nodes": [
        0
      ]
    }
  ],
  "skins": [
    {
      "inverseBindMatrices": 4,
      "joints": [
        3
      ],
      "skeleton": 3
    }
  ],
  "textures": [
    {
      "sampler": 0,
      "source": 0
    }
  ]
}
